Battleship DVD Rip (2012)
 
http://bayimg.com/gaAJdAAeL

Format                                   : MPEG-4
Codec ID                                 : M4V 
File size                                : 381 MiB
Duration                                 : 2h 5mn
Overall bit rate mode                    : Variable
Overall bit rate                         : 423 Kbps
Writing application                      : Lavf52.32.0

Video
ID                                       : 1
Format                                   : MPEG-4 Visual
Format profile                           : Simple@L1
Format settings, BVOP                    : No
Format settings, QPel                    : No
Format settings, GMC                     : No warppoints
Format settings, Matrix                  : Default (H.263)
Codec ID                                 : 20
Duration                                 : 2h 5mn
Bit rate                                 : 355 Kbps
Width                                    : 480 pixels
Height                                   : 320 pixels
Display aspect ratio                     : 2.500
Frame rate mode                          : Constant
Frame rate                               : 23.976 fps
Color space                              : YUV
Chroma subsampling                       : 4:2:0
Bit depth                                : 8 bits
Scan type                                : Progressive
Compression mode                         : Lossy
Bits/(Pixel*Frame)                       : 0.096
Stream size                              : 319 MiB (84%)
Writing library                          : Lavc52.22.3

Audio
ID                                       : 2
Format                                   : AAC
Format/Info                              : Advanced Audio Codec
Format profile                           : LC
Codec ID                                 : 40
Duration                                 : 2h 5mn
Bit rate mode                            : Variable
Bit rate                                 : 64.0 Kbps
Channel(s)                               : 2 channels
Channel positions                        : Front: L R
Sampling rate                            : 44.1 KHz
Compression mode                         : Lossy
Stream size                              : 57.6 MiB (15%)

